<svg width="22" height="17" viewBox="0 0 22 17" fill="none" xmlns="http://www.w3.org/2000/svg">
<path d="M3.375 0H18C18.8951 0 19.7536 0.355579 20.3865 0.988515C21.0194 1.62145 21.375 2.47989 21.375 3.375V13.5C21.375 14.3951 21.0194 15.2536 20.3865 15.8865C19.7536 16.5194 18.8951 16.875 18 16.875H3.375C2.47989 16.875 1.62145 16.5194 0.988515 15.8865C0.355579 15.2536 0 14.3951 0 13.5V3.375C0 2.47989 0.355579 1.62145 0.988515 0.988515C1.62145 0.355579 2.47989 0 3.375 0ZM3.375 1.125C2.8125 1.125 2.3175 1.31625 1.935 1.65375L10.6875 7.3125L19.44 1.65375C19.0575 1.31625 18.5625 1.125 18 1.125H3.375ZM10.6875 8.67375L1.27125 2.565C1.18125 2.8125 1.125 3.09375 1.125 3.375V13.5C1.125 14.0967 1.36205 14.669 1.78401 15.091C2.20597 15.5129 2.77826 15.75 3.375 15.75H18C18.5967 15.75 19.169 15.5129 19.591 15.091C20.0129 14.669 20.25 14.0967 20.25 13.5V3.375C20.25 3.09375 20.1938 2.8125 20.1038 2.565L10.6875 8.67375Z" fill="#1A1A1A"/>
</svg>
