<svg width="33" height="33" viewBox="0 0 33 33" fill="none" xmlns="http://www.w3.org/2000/svg">
<path d="M29.574 13.8885H28.5V13.8332H16.5V19.1665H24.0353C22.936 22.2712 19.982 24.4998 16.5 24.4998C12.082 24.4998 8.49996 20.9178 8.49996 16.4998C8.49996 12.0818 12.082 8.49984 16.5 8.49984C18.5393 8.49984 20.3946 9.26917 21.8073 10.5258L25.5786 6.7545C23.1973 4.53517 20.012 3.1665 16.5 3.1665C9.13663 3.1665 3.16663 9.1365 3.16663 16.4998C3.16663 23.8632 9.13663 29.8332 16.5 29.8332C23.8633 29.8332 29.8333 23.8632 29.8333 16.4998C29.8333 15.6058 29.7413 14.7332 29.574 13.8885Z" fill="#FFC107"/>
<path d="M4.70398 10.2938L9.08465 13.5065C10.27 10.5718 13.1406 8.49984 16.5 8.49984C18.5393 8.49984 20.3946 9.26917 21.8073 10.5258L25.5786 6.7545C23.1973 4.53517 20.012 3.1665 16.5 3.1665C11.3786 3.1665 6.93731 6.05784 4.70398 10.2938Z" fill="#FF3D00"/>
<path d="M16.5 29.8333C19.944 29.8333 23.0733 28.5153 25.4393 26.372L21.3127 22.88C19.9293 23.9327 18.2384 24.5018 16.5 24.5C13.032 24.5 10.0873 22.2886 8.978 19.2026L4.63 22.5526C6.83667 26.8706 11.318 29.8333 16.5 29.8333Z" fill="#4CAF50"/>
<path d="M29.574 13.8888H28.5V13.8335H16.5V19.1668H24.0353C23.5095 20.6444 22.5622 21.9356 21.3107 22.8808L21.3127 22.8795L25.4393 26.3715C25.1473 26.6368 29.8333 23.1668 29.8333 16.5002C29.8333 15.6062 29.7413 14.7335 29.574 13.8888Z" fill="#1976D2"/>
</svg>
