<svg width="16" height="16" viewBox="0 0 16 16" fill="none" xmlns="http://www.w3.org/2000/svg">
<path d="M8.00012 1.625C10.0626 1.625 10.3439 1.625 11.1876 1.625C11.9376 1.625 12.3126 1.8125 12.5939 1.90625C12.9689 2.09375 13.2501 2.1875 13.5314 2.46875C13.8126 2.75 14.0001 3.03125 14.0939 3.40625C14.1876 3.6875 14.2814 4.0625 14.3751 4.8125C14.3751 5.65625 14.3751 5.84375 14.3751 8C14.3751 10.1563 14.3751 10.3438 14.3751 11.1875C14.3751 11.9375 14.1876 12.3125 14.0939 12.5937C13.9064 12.9687 13.8126 13.25 13.5314 13.5312C13.2501 13.8125 12.9689 14 12.5939 14.0938C12.3126 14.1875 11.9376 14.2812 11.1876 14.375C10.3439 14.375 10.1564 14.375 8.00012 14.375C5.84387 14.375 5.65637 14.375 4.81262 14.375C4.06262 14.375 3.68762 14.1875 3.40637 14.0938C3.03137 13.9063 2.75012 13.8125 2.46887 13.5312C2.18762 13.25 2.00012 12.9687 1.90637 12.5937C1.81262 12.3125 1.71887 11.9375 1.62512 11.1875C1.62512 10.3438 1.62512 10.1563 1.62512 8C1.62512 5.84375 1.62512 5.65625 1.62512 4.8125C1.62512 4.0625 1.81262 3.6875 1.90637 3.40625C2.09387 3.03125 2.18762 2.75 2.46887 2.46875C2.75012 2.1875 3.03137 2 3.40637 1.90625C3.68762 1.8125 4.06262 1.71875 4.81262 1.625C5.65637 1.625 5.93762 1.625 8.00012 1.625ZM8.00012 0.21875C5.84387 0.21875 5.65637 0.21875 4.81262 0.21875C3.96887 0.21875 3.40637 0.406251 2.93762 0.593751C2.46887 0.781251 2.00012 1.0625 1.53137 1.53125C1.06262 2 0.875123 2.375 0.593873 2.9375C0.406373 3.40625 0.312622 3.96875 0.218872 4.8125C0.218872 5.65625 0.218872 5.9375 0.218872 8C0.218872 10.1563 0.218872 10.3438 0.218872 11.1875C0.218872 12.0312 0.406373 12.5937 0.593873 13.0625C0.781373 13.5312 1.06262 14 1.53137 14.4687C2.00012 14.9375 2.37512 15.125 2.93762 15.4063C3.40637 15.5938 3.96887 15.6875 4.81262 15.7812C5.65637 15.7812 5.93762 15.7812 8.00012 15.7812C10.0626 15.7812 10.3439 15.7812 11.1876 15.7812C12.0314 15.7812 12.5939 15.5938 13.0626 15.4063C13.5314 15.2188 14.0001 14.9375 14.4689 14.4687C14.9376 14 15.1251 13.625 15.4064 13.0625C15.5939 12.5937 15.6876 12.0312 15.7814 11.1875C15.7814 10.3438 15.7814 10.0625 15.7814 8C15.7814 5.9375 15.7814 5.65625 15.7814 4.8125C15.7814 3.96875 15.5939 3.40625 15.4064 2.9375C15.2189 2.46875 14.9376 2 14.4689 1.53125C14.0001 1.0625 13.6251 0.875001 13.0626 0.593751C12.5939 0.406251 12.0314 0.3125 11.1876 0.21875C10.3439 0.21875 10.1564 0.21875 8.00012 0.21875Z" fill="white"/>
<path d="M8.00012 3.96875C5.75012 3.96875 3.96887 5.75 3.96887 8C3.96887 10.25 5.75012 12.0312 8.00012 12.0312C10.2501 12.0312 12.0314 10.25 12.0314 8C12.0314 5.75 10.2501 3.96875 8.00012 3.96875ZM8.00012 10.625C6.59387 10.625 5.37512 9.5 5.37512 8C5.37512 6.59375 6.50012 5.375 8.00012 5.375C9.40637 5.375 10.6251 6.5 10.6251 8C10.6251 9.40625 9.40637 10.625 8.00012 10.625Z" fill="white"/>
<path d="M12.1251 4.8125C12.6429 4.8125 13.0626 4.39277 13.0626 3.875C13.0626 3.35723 12.6429 2.9375 12.1251 2.9375C11.6074 2.9375 11.1876 3.35723 11.1876 3.875C11.1876 4.39277 11.6074 4.8125 12.1251 4.8125Z" fill="white"/>
</svg>
