<svg width="30" height="30" viewBox="0 0 30 30" fill="none" xmlns="http://www.w3.org/2000/svg">
<rect x="0.5" y="0.5" width="29" height="29" rx="4.5" stroke="white"/>
<path d="M15.0001 8.625C17.0626 8.625 17.3439 8.625 18.1876 8.625C18.9376 8.625 19.3126 8.8125 19.5939 8.90625C19.9689 9.09375 20.2501 9.1875 20.5314 9.46875C20.8126 9.75 21.0001 10.0313 21.0939 10.4063C21.1876 10.6875 21.2814 11.0625 21.3751 11.8125C21.3751 12.6563 21.3751 12.8438 21.3751 15C21.3751 17.1562 21.3751 17.3438 21.3751 18.1875C21.3751 18.9375 21.1876 19.3125 21.0939 19.5938C20.9064 19.9687 20.8126 20.25 20.5314 20.5312C20.2501 20.8125 19.9689 21 19.5939 21.0938C19.3126 21.1875 18.9376 21.2812 18.1876 21.375C17.3439 21.375 17.1564 21.375 15.0001 21.375C12.8439 21.375 12.6564 21.375 11.8126 21.375C11.0626 21.375 10.6876 21.1875 10.4064 21.0938C10.0314 20.9062 9.75012 20.8125 9.46887 20.5312C9.18762 20.25 9.00012 19.9687 8.90637 19.5938C8.81262 19.3125 8.71887 18.9375 8.62512 18.1875C8.62512 17.3438 8.62512 17.1562 8.62512 15C8.62512 12.8438 8.62512 12.6563 8.62512 11.8125C8.62512 11.0625 8.81262 10.6875 8.90637 10.4063C9.09387 10.0313 9.18762 9.75 9.46887 9.46875C9.75012 9.1875 10.0314 9 10.4064 8.90625C10.6876 8.8125 11.0626 8.71875 11.8126 8.625C12.6564 8.625 12.9376 8.625 15.0001 8.625ZM15.0001 7.21875C12.8439 7.21875 12.6564 7.21875 11.8126 7.21875C10.9689 7.21875 10.4064 7.40625 9.93762 7.59375C9.46887 7.78125 9.00012 8.0625 8.53137 8.53125C8.06262 9 7.87512 9.375 7.59387 9.9375C7.40637 10.4063 7.31262 10.9688 7.21887 11.8125C7.21887 12.6563 7.21887 12.9375 7.21887 15C7.21887 17.1562 7.21887 17.3438 7.21887 18.1875C7.21887 19.0312 7.40637 19.5938 7.59387 20.0625C7.78137 20.5312 8.06262 21 8.53137 21.4688C9.00012 21.9375 9.37512 22.125 9.93762 22.4063C10.4064 22.5938 10.9689 22.6875 11.8126 22.7812C12.6564 22.7812 12.9376 22.7812 15.0001 22.7812C17.0626 22.7812 17.3439 22.7812 18.1876 22.7812C19.0314 22.7812 19.5939 22.5938 20.0626 22.4063C20.5314 22.2188 21.0001 21.9375 21.4689 21.4688C21.9376 21 22.1251 20.625 22.4064 20.0625C22.5939 19.5938 22.6876 19.0312 22.7814 18.1875C22.7814 17.3438 22.7814 17.0625 22.7814 15C22.7814 12.9375 22.7814 12.6563 22.7814 11.8125C22.7814 10.9688 22.5939 10.4063 22.4064 9.9375C22.2189 9.46875 21.9376 9 21.4689 8.53125C21.0001 8.0625 20.6251 7.875 20.0626 7.59375C19.5939 7.40625 19.0314 7.3125 18.1876 7.21875C17.3439 7.21875 17.1564 7.21875 15.0001 7.21875Z" fill="white"/>
<path d="M15.0001 10.9688C12.7501 10.9688 10.9689 12.75 10.9689 15C10.9689 17.25 12.7501 19.0312 15.0001 19.0312C17.2501 19.0312 19.0314 17.25 19.0314 15C19.0314 12.75 17.2501 10.9688 15.0001 10.9688ZM15.0001 17.625C13.5939 17.625 12.3751 16.5 12.3751 15C12.3751 13.5938 13.5001 12.375 15.0001 12.375C16.4064 12.375 17.6251 13.5 17.6251 15C17.6251 16.4062 16.4064 17.625 15.0001 17.625Z" fill="white"/>
<path d="M19.1251 11.8125C19.6429 11.8125 20.0626 11.3928 20.0626 10.875C20.0626 10.3572 19.6429 9.9375 19.1251 9.9375C18.6074 9.9375 18.1876 10.3572 18.1876 10.875C18.1876 11.3928 18.6074 11.8125 19.1251 11.8125Z" fill="white"/>
</svg>
